<svg width="12" height="12" viewBox="0 0 12 12"  fill="current" stroke="current" xmlns="http://www.w3.org/2000/svg">
<path fill-rule="evenodd" clip-rule="evenodd" d="M8.17062 4.90799C8.17062 6.70799 6.70662 8.17199 4.90662 8.17199C3.10662 8.17199 1.63062 6.70799 1.63062 4.90799C1.63062 3.09599 3.09462 1.63199 4.90662 1.63199C6.70662 1.63199 8.17062 3.10799 8.17062 4.90799ZM8.952 7.68C9.516 6.876 9.816 5.892 9.816 4.908C9.816 2.196 7.62 0 4.908 0C2.196 0 0 2.196 0 4.908C0 7.62 2.196 9.816 4.908 9.816C5.892 9.816 6.876 9.504 7.692 8.952L10.74 12L12 10.74L8.952 7.68Z" fill="current"/>
</svg>
